<svg height="420pt" viewBox="0 -20 420.52607 420" width="420pt" xmlns="http://www.w3.org/2000/svg"><path d="m314.027344 157.277344c0 86.714844-70.296875 157.011718-157.015625 157.011718-86.714844 0-157.011719-70.296874-157.011719-157.011718 0-86.71875 70.296875-157.015625 157.011719-157.015625 86.71875 0 157.015625 70.296875 157.015625 157.015625zm0 0" fill="#efefd2"/><path d="m404.585938 191.410156c0 91.488282-74.164063 165.652344-165.652344 165.652344-91.488282 0-165.65625-74.164062-165.65625-165.652344 0-91.488281 74.167968-165.65625 165.65625-165.65625 91.488281 0 165.652344 74.167969 165.652344 165.65625zm0 0" fill="#9dc1e4"/><path d="m238.933594 363.890625c-95.109375 0-172.480469-77.375-172.480469-172.480469 0-95.105468 77.371094-172.480468 172.480469-172.480468 95.105468 0 172.480468 77.371093 172.480468 172.476562 0 95.109375-77.375 172.484375-172.480468 172.484375zm0-331.308594c-87.574219 0-158.824219 71.25-158.824219 158.824219 0 87.578125 71.25 158.828125 158.824219 158.828125 87.574218 0 158.824218-71.25 158.824218-158.828125 0-87.574219-71.25-158.824219-158.824218-158.824219zm0 0" fill="#4c241d"/><path d="m363.671875 191.410156c0 68.890625-55.847656 124.738282-124.738281 124.738282s-124.738282-55.847657-124.738282-124.738282 55.847657-124.738281 124.738282-124.738281 124.738281 55.847656 124.738281 124.738281zm0 0" fill="#fff"/><path d="m350.015625 158.203125c0 49.527344-40.148437 89.675781-89.675781 89.675781-49.523438 0-89.671875-40.148437-89.671875-89.675781 0-49.523437 40.148437-89.671875 89.671875-89.671875 49.527344 0 89.675781 40.148438 89.675781 89.671875zm0 0" fill="#c1dbdc"/><g fill="#4c241d"><path d="m129.550781 134.507812c-1.167969 0-2.351562-.300781-3.433593-.933593-3.257813-1.898438-4.359376-6.078125-2.457032-9.335938 4.117188-7.054687 8.921875-13.777343 14.28125-19.984375 2.457032-2.855468 6.773438-3.171875 9.628906-.703125 2.855469 2.46875 3.164063 6.777344.703126 9.632813-4.8125 5.570312-9.128907 11.601562-12.820313 17.9375-1.269531 2.171875-3.554687 3.386718-5.902344 3.386718zm0 0"/><path d="m239.195312 324.8125c-5.226562 0-10.492187-.308594-15.769531-.921875-35.386719-4.144531-67.042969-21.816406-89.136719-49.769531s-31.980468-62.832032-27.835937-98.21875c.4375-3.746094 3.859375-6.457032 7.574219-5.988282 3.746094.4375 6.425781 3.832032 5.984375 7.574219-3.714844 31.765625 5.15625 63.074219 24.988281 88.167969 19.832031 25.089844 48.25 40.953125 80.015625 44.675781 31.769531 3.699219 63.070313-5.164062 88.164063-24.988281 25.089843-19.835938 40.953124-48.25 44.675781-80.015625 3.714843-31.761719-5.15625-63.070313-24.988281-88.164063-19.832032-25.089843-48.25-40.953124-80.015626-44.675781-26.703124-3.132812-52.945312 2.574219-75.882812 16.464844-3.234375 1.957031-7.421875.917969-9.375-2.304687-1.953125-3.226563-.925781-7.425782 2.304688-9.378907 25.554687-15.476562 54.804687-21.820312 84.542968-18.339843 35.382813 4.140624 67.042969 21.816406 89.136719 49.769531 22.09375 27.949219 31.980469 62.828125 27.835937 98.214843-4.140624 35.386719-21.816406 67.042969-49.769531 89.136719-23.785156 18.800781-52.589843 28.761719-82.449219 28.761719zm0 0"/><path d="m188.515625 248.652344c-1.746094 0-3.492187-.667969-4.824219-2-2.667968-2.664063-2.667968-6.988282 0-9.652344l48.414063-48.417969v-69.195312c0-3.769531 3.058593-6.828125 6.828125-6.828125 3.769531 0 6.828125 3.058594 6.828125 6.828125v72.023437c0 1.808594-.722657 3.546875-2 4.824219l-50.417969 50.417969c-1.332031 1.332031-3.082031 2-4.828125 2zm0 0"/></g><path d="m413.699219 314.289062c0 32.425782-26.285157 58.714844-58.710938 58.714844-32.429687 0-58.714843-26.289062-58.714843-58.714844 0-32.425781 26.285156-58.710937 58.714843-58.710937 32.425781 0 58.710938 26.285156 58.710938 58.710937zm0 0" fill="#fff"/><path d="m354.988281 379.828125c-36.140625 0-65.542969-29.398437-65.542969-65.539063 0-36.136718 29.402344-65.539062 65.542969-65.539062 36.136719 0 65.539063 29.402344 65.539063 65.539062 0 36.140626-29.398438 65.539063-65.539063 65.539063zm0-117.425781c-28.613281 0-51.886719 23.277344-51.886719 51.886718 0 28.609376 23.277344 51.886719 51.886719 51.886719 28.605469 0 51.882813-23.277343 51.882813-51.886719 0-28.609374-23.277344-51.886718-51.882813-51.886718zm0 0" fill="#4c241d"/><path d="m387.617188 330.441406-4.574219-5.339844c-4.832031-5.640624-7.492188-12.824218-7.492188-20.257812v-3.710938c0-10.503906-7.679687-19.886718-18.136719-20.882812-11.996093-1.144531-22.089843 8.257812-22.089843 20.019531v6.113281c0 6.488282-2.027344 12.816407-5.796875 18.09375l-4.257813 5.960938h62.347657zm0 0" fill="#ffce56"/><path d="m387.617188 337.265625h-62.351563c-2.554687 0-4.898437-1.429687-6.070313-3.703125-1.171874-2.273438-.96875-5.011719.519532-7.089844l4.257812-5.960937c2.960938-4.144531 4.523438-9.027344 4.523438-14.125v-6.117188c0-7.574219 3.214844-14.835937 8.820312-19.9375 5.605469-5.089843 13.171875-7.574219 20.742188-6.878906 13.636718 1.304687 24.316406 13.464844 24.316406 27.679687v3.714844c0 5.796875 2.078125 11.414063 5.851562 15.816406l4.574219 5.335938c1.734375 2.027344 2.132813 4.871094 1.019531 7.296875-1.117187 2.417969-3.539062 3.96875-6.203124 3.96875zm-49.59375-13.652344h35.664062c-3.234375-5.683593-4.964844-12.148437-4.964844-18.765625v-3.714844c0-7.257812-5.253906-13.445312-11.960937-14.085937-3.828125-.378906-7.453125.835937-10.261719 3.386719-2.765625 2.515625-4.351562 6.097656-4.351562 9.835937v6.117188c0 6.054687-1.414063 11.914062-4.125 17.226562zm0 0" fill="#4c241d"/><path d="m355.417969 348.421875c-3.769531 0-6.828125-3.054687-6.828125-6.824219v-10.484375c0-3.769531 3.058594-6.828125 6.828125-6.828125s6.824219 3.058594 6.824219 6.828125v10.484375c0 3.769532-3.054688 6.824219-6.824219 6.824219zm0 0" fill="#4c241d"/></svg>